{
    "asset": {
        "version": "2.0",
        "generator": "Open Asset Import Library (assimp v5.2.cf7d3637)"
    },
    "extensionsUsed": [
        "KHR_materials_volume",
        "FB_ngon_encoding"
    ],
    "accessors": [
        {
            "bufferView": 0,
            "byteOffset": 0,
            "componentType": 5126,
            "count": 474,
            "type": "VEC3",
            "max": [
                5.071500301361084,
                2.2843964099884035,
                1.6709563732147217
            ],
            "min": [
                -4.392930507659912,
                -0.6121369004249573,
                -1.6709563732147217
            ]
        },
        {
            "bufferView": 1,
            "byteOffset": 0,
            "componentType": 5126,
            "count": 474,
            "type": "VEC3",
            "max": [
                0.9998397827148438,
                1.0,
                0.9700775742530823
            ],
            "min": [
                -0.6935802102088928,
                -0.9999955892562866,
                -0.9700775742530823
            ]
        },
        {
            "bufferView": 2,
            "byteOffset": 0,
            "componentType": 5126,
            "count": 474,
            "type": "VEC2",
            "max": [
                0.835260272026062,
                1.0
            ],
            "min": [
                0.0,
                0.0
            ]
        },
        {
            "bufferView": 3,
            "byteOffset": 0,
            "componentType": 5126,
            "count": 474,
            "type": "VEC4",
            "max": [
                1.0,
                1.0,
                1.0,
                1.0
            ],
            "min": [
                1.0,
                1.0,
                1.0,
                1.0
            ]
        },
        {
            "bufferView": 4,
            "byteOffset": 0,
            "componentType": 5126,
            "count": 474,
            "type": "VEC4",
            "max": [
                1.0,
                1.0,
                1.0,
                0.0
            ],
            "min": [
                1.0,
                1.0,
                1.0,
                0.0
            ]
        },
        {
            "bufferView": 5,
            "byteOffset": 0,
            "componentType": 5125,
            "count": 474,
            "type": "SCALAR",
            "max": [
                473
            ],
            "min": [
                0
            ]
        },
        {
            "bufferView": 6,
            "byteOffset": 0,
            "componentType": 5126,
            "count": 81,
            "type": "VEC3",
            "max": [
                3.5148820877075197,
                2.208270788192749,
                0.608411431312561
            ],
            "min": [
                -0.384274959564209,
                0.12798047065734864,
                -0.608411431312561
            ]
        },
        {
            "bufferView": 7,
            "byteOffset": 0,
            "componentType": 5126,
            "count": 81,
            "type": "VEC3",
            "max": [
                0.854549765586853,
                1.0,
                0.9988734722137451
            ],
            "min": [
                -0.05109964683651924,
                -0.0585985891520977,
                -0.9988734722137451
            ]
        },
        {
            "bufferView": 8,
            "byteOffset": 0,
            "componentType": 5126,
            "count": 81,
            "type": "VEC2",
            "max": [
                0.835260272026062,
                0.710260272026062
            ],
            "min": [
                0.6249999403953552,
                0.03973972797393799
            ]
        },
        {
            "bufferView": 9,
            "byteOffset": 0,
            "componentType": 5126,
            "count": 81,
            "type": "VEC4",
            "max": [
                1.0,
                1.0,
                1.0,
                1.0
            ],
            "min": [
                1.0,
                1.0,
                1.0,
                1.0
            ]
        },
        {
            "bufferView": 10,
            "byteOffset": 0,
            "componentType": 5126,
            "count": 81,
            "type": "VEC4",
            "max": [
                1.0,
                1.0,
                1.0,
                0.0
            ],
            "min": [
                1.0,
                1.0,
                1.0,
                0.0
            ]
        },
        {
            "bufferView": 11,
            "byteOffset": 0,
            "componentType": 5125,
            "count": 81,
            "type": "SCALAR",
            "max": [
                80
            ],
            "min": [
                0
            ]
        },
        {
            "bufferView": 12,
            "byteOffset": 0,
            "componentType": 5126,
            "count": 108,
            "type": "VEC3",
            "max": [
                4.535156726837158,
                1.100582480430603,
                1.4395153522491456
            ],
            "min": [
                -4.193140029907227,
                0.6174317598342896,
                -1.4395153522491456
            ]
        },
        {
            "bufferView": 13,
            "byteOffset": 0,
            "componentType": 5126,
            "count": 108,
            "type": "VEC3",
            "max": [
                0.24608676135540009,
                0.9989508390426636,
                0.012499895878136158
            ],
            "min": [
                -0.045797742903232577,
                0.9692478775978088,
                -0.012499895878136158
            ]
        },
        {
            "bufferView": 14,
            "byteOffset": 0,
            "componentType": 5126,
            "count": 108,
            "type": "VEC2",
            "max": [
                0.8287448883056641,
                0.978913426399231
            ],
            "min": [
                0.008307527750730515,
                0.25
            ]
        },
        {
            "bufferView": 15,
            "byteOffset": 0,
            "componentType": 5126,
            "count": 108,
            "type": "VEC4",
            "max": [
                1.0,
                1.0,
                1.0,
                1.0
            ],
            "min": [
                1.0,
                1.0,
                1.0,
                1.0
            ]
        },
        {
            "bufferView": 16,
            "byteOffset": 0,
            "componentType": 5126,
            "count": 108,
            "type": "VEC4",
            "max": [
                1.0,
                1.0,
                1.0,
                0.0
            ],
            "min": [
                1.0,
                1.0,
                1.0,
                0.0
            ]
        },
        {
            "bufferView": 17,
            "byteOffset": 0,
            "componentType": 5125,
            "count": 108,
            "type": "SCALAR",
            "max": [
                107
            ],
            "min": [
                0
            ]
        },
        {
            "bufferView": 18,
            "byteOffset": 0,
            "componentType": 5126,
            "count": 42,
            "type": "VEC3",
            "max": [
                -0.5393151044845581,
                1.1338722705841065,
                1.6709563732147217
            ],
            "min": [
                -4.392930507659912,
                -0.449873149394989,
                -1.6709563732147217
            ]
        },
        {
            "bufferView": 19,
            "byteOffset": 0,
            "componentType": 5126,
            "count": 42,
            "type": "VEC3",
            "max": [
                0.08579673618078232,
                -0.25549420714378359,
                0.9536682963371277
            ],
            "min": [
                -0.4308902323246002,
                -0.973329484462738,
                -0.9536682963371277
            ]
        },
        {
            "bufferView": 20,
            "byteOffset": 0,
            "componentType": 5126,
            "count": 42,
            "type": "VEC2",
            "max": [
                0.625,
                1.0
            ],
            "min": [
                0.0,
                0.0
            ]
        },
        {
            "bufferView": 21,
            "byteOffset": 0,
            "componentType": 5126,
            "count": 42,
            "type": "VEC4",
            "max": [
                1.0,
                1.0,
                1.0,
                1.0
            ],
            "min": [
                1.0,
                1.0,
                1.0,
                1.0
            ]
        },
        {
            "bufferView": 22,
            "byteOffset": 0,
            "componentType": 5126,
            "count": 42,
            "type": "VEC4",
            "max": [
                1.0,
                1.0,
                1.0,
                0.0
            ],
            "min": [
                1.0,
                1.0,
                1.0,
                0.0
            ]
        },
        {
            "bufferView": 23,
            "byteOffset": 0,
            "componentType": 5125,
            "count": 42,
            "type": "SCALAR",
            "max": [
                41
            ],
            "min": [
                0
            ]
        },
        {
            "bufferView": 24,
            "byteOffset": 0,
            "componentType": 5126,
            "count": 24,
            "type": "VEC3",
            "max": [
                2.9853978157043459,
                1.1338722705841065,
                1.4194320440292359
            ],
            "min": [
                -0.5658965110778809,
                -0.6121369004249573,
                -1.4194320440292359
            ]
        },
        {
            "bufferView": 25,
            "byteOffset": 0,
            "componentType": 5126,
            "count": 24,
            "type": "VEC3",
            "max": [
                0.06889985501766205,
                -0.21309956908226014,
                0.9745980501174927
            ],
            "min": [
                0.06889985501766205,
                -0.21309956908226014,
                -0.9745980501174927
            ]
        },
        {
            "bufferView": 26,
            "byteOffset": 0,
            "componentType": 5126,
            "count": 24,
            "type": "VEC2",
            "max": [
                0.6800000071525574,
                0.6499999761581421
            ],
            "min": [
                0.3070000112056732,
                0.0
            ]
        },
        {
            "bufferView": 27,
            "byteOffset": 0,
            "componentType": 5126,
            "count": 24,
            "type": "VEC4",
            "max": [
                1.0,
                1.0,
                1.0,
                1.0
            ],
            "min": [
                1.0,
                1.0,
                1.0,
                1.0
            ]
        },
        {
            "bufferView": 28,
            "byteOffset": 0,
            "componentType": 5126,
            "count": 24,
            "type": "VEC4",
            "max": [
                1.0,
                1.0,
                1.0,
                0.0
            ],
            "min": [
                1.0,
                1.0,
                1.0,
                0.0
            ]
        },
        {
            "bufferView": 29,
            "byteOffset": 0,
            "componentType": 5125,
            "count": 24,
            "type": "SCALAR",
            "max": [
                23
            ],
            "min": [
                0
            ]
        }
    ],
    "buffers": [
        {
            "byteLength": 49572,
            "uri": "daybreak.bin"
        }
    ],
    "bufferViews": [
        {
            "buffer": 0,
            "byteOffset": 0,
            "byteLength": 5688,
            "target": 34962
        },
        {
            "buffer": 0,
            "byteOffset": 5688,
            "byteLength": 5688,
            "target": 34962
        },
        {
            "buffer": 0,
            "byteOffset": 11376,
            "byteLength": 3792,
            "target": 34962
        },
        {
            "buffer": 0,
            "byteOffset": 15168,
            "byteLength": 7584,
            "target": 34962
        },
        {
            "buffer": 0,
            "byteOffset": 22752,
            "byteLength": 7584,
            "target": 34962
        },
        {
            "buffer": 0,
            "byteOffset": 30336,
            "byteLength": 1896,
            "target": 34963
        },
        {
            "buffer": 0,
            "byteOffset": 32232,
            "byteLength": 972,
            "target": 34962
        },
        {
            "buffer": 0,
            "byteOffset": 33204,
            "byteLength": 972,
            "target": 34962
        },
        {
            "buffer": 0,
            "byteOffset": 34176,
            "byteLength": 648,
            "target": 34962
        },
        {
            "buffer": 0,
            "byteOffset": 34824,
            "byteLength": 1296,
            "target": 34962
        },
        {
            "buffer": 0,
            "byteOffset": 36120,
            "byteLength": 1296,
            "target": 34962
        },
        {
            "buffer": 0,
            "byteOffset": 37416,
            "byteLength": 324,
            "target": 34963
        },
        {
            "buffer": 0,
            "byteOffset": 37740,
            "byteLength": 1296,
            "target": 34962
        },
        {
            "buffer": 0,
            "byteOffset": 39036,
            "byteLength": 1296,
            "target": 34962
        },
        {
            "buffer": 0,
            "byteOffset": 40332,
            "byteLength": 864,
            "target": 34962
        },
        {
            "buffer": 0,
            "byteOffset": 41196,
            "byteLength": 1728,
            "target": 34962
        },
        {
            "buffer": 0,
            "byteOffset": 42924,
            "byteLength": 1728,
            "target": 34962
        },
        {
            "buffer": 0,
            "byteOffset": 44652,
            "byteLength": 432,
            "target": 34963
        },
        {
            "buffer": 0,
            "byteOffset": 45084,
            "byteLength": 504,
            "target": 34962
        },
        {
            "buffer": 0,
            "byteOffset": 45588,
            "byteLength": 504,
            "target": 34962
        },
        {
            "buffer": 0,
            "byteOffset": 46092,
            "byteLength": 336,
            "target": 34962
        },
        {
            "buffer": 0,
            "byteOffset": 46428,
            "byteLength": 672,
            "target": 34962
        },
        {
            "buffer": 0,
            "byteOffset": 47100,
            "byteLength": 672,
            "target": 34962
        },
        {
            "buffer": 0,
            "byteOffset": 47772,
            "byteLength": 168,
            "target": 34963
        },
        {
            "buffer": 0,
            "byteOffset": 47940,
            "byteLength": 288,
            "target": 34962
        },
        {
            "buffer": 0,
            "byteOffset": 48228,
            "byteLength": 288,
            "target": 34962
        },
        {
            "buffer": 0,
            "byteOffset": 48516,
            "byteLength": 192,
            "target": 34962
        },
        {
            "buffer": 0,
            "byteOffset": 48708,
            "byteLength": 384,
            "target": 34962
        },
        {
            "buffer": 0,
            "byteOffset": 49092,
            "byteLength": 384,
            "target": 34962
        },
        {
            "buffer": 0,
            "byteOffset": 49476,
            "byteLength": 96,
            "target": 34963
        }
    ],
    "images": [
        {
            "name": "Austin8(L)",
            "uri": "data:image/png;base64,"
        }
    ],
    "materials": [
        {
            "name": "base",
            "pbrMetallicRoughness": {
                "baseColorFactor": [
                    0.800000011920929,
                    0.800000011920929,
                    0.800000011920929,
                    1.0
                ],
                "metallicFactor": 0.0,
                "roughnessFactor": 0.5
            },
            "doubleSided": true
        },
        {
            "name": "window",
            "pbrMetallicRoughness": {
                "baseColorFactor": [
                    0.0,
                    0.7540016174316406,
                    0.800782322883606,
                    1.0
                ],
                "roughnessFactor": 0.25
            },
            "doubleSided": true
        },
        {
            "name": "array",
            "pbrMetallicRoughness": {
                "baseColorFactor": [
                    0.007128876633942127,
                    0.0,
                    0.008668583817780018,
                    1.0
                ],
                "roughnessFactor": 0.25
            },
            "doubleSided": true
        },
        {
            "name": "orange",
            "pbrMetallicRoughness": {
                "baseColorFactor": [
                    0.8005527257919312,
                    0.1817217320203781,
                    0.0,
                    1.0
                ],
                "metallicFactor": 0.0,
                "roughnessFactor": 0.5
            },
            "doubleSided": true
        },
        {
            "name": "aus",
            "pbrMetallicRoughness": {
                "baseColorTexture": {
                    "index": 0
                },
                "metallicFactor": 0.0,
                "roughnessFactor": 0.5
            },
            "doubleSided": true
        },
        {
            "name": "material"
        }
    ],
    "meshes": [
        {
            "name": "Cube.006-0",
            "primitives": [
                {
                    "mode": 4,
                    "material": 0,
                    "indices": 5,
                    "attributes": {
                        "POSITION": 0,
                        "NORMAL": 1,
                        "TEXCOORD_0": 2,
                        "COLOR_0": 3,
                        "COLOR_1": 4
                    }
                },
                {
                    "mode": 4,
                    "material": 1,
                    "indices": 11,
                    "attributes": {
                        "POSITION": 6,
                        "NORMAL": 7,
                        "TEXCOORD_0": 8,
                        "COLOR_0": 9,
                        "COLOR_1": 10
                    }
                },
                {
                    "mode": 4,
                    "material": 2,
                    "indices": 17,
                    "attributes": {
                        "POSITION": 12,
                        "NORMAL": 13,
                        "TEXCOORD_0": 14,
                        "COLOR_0": 15,
                        "COLOR_1": 16
                    }
                },
                {
                    "mode": 4,
                    "material": 3,
                    "indices": 23,
                    "attributes": {
                        "POSITION": 18,
                        "NORMAL": 19,
                        "TEXCOORD_0": 20,
                        "COLOR_0": 21,
                        "COLOR_1": 22
                    }
                },
                {
                    "mode": 4,
                    "material": 4,
                    "indices": 29,
                    "attributes": {
                        "POSITION": 24,
                        "NORMAL": 25,
                        "TEXCOORD_0": 26,
                        "COLOR_0": 27,
                        "COLOR_1": 28
                    }
                }
            ]
        }
    ],
    "nodes": [
        {
            "name": "ROOT",
            "children": [
                1,
                2,
                3,
                4,
                5
            ]
        },
        {
            "name": "Empty",
            "matrix": [
                -1.000000238418579,
                4.3711395392165289e-8,
                4.3711395392165289e-8,
                0.0,
                -4.3711395392165289e-8,
                -1.1920928955078126e-7,
                -1.0000001192092896,
                0.0,
                -4.3711395392165289e-8,
                -1.0000001192092896,
                -1.1920928955078126e-7,
                0.0,
                0.0,
                0.0,
                -0.0022058486938476564,
                1.0
            ]
        },
        {
            "name": "Empty.001",
            "matrix": [
                1.1920928955078126e-7,
                0.0,
                -1.0,
                0.0,
                1.0,
                1.1920928955078126e-7,
                1.1920928955078126e-7,
                0.0,
                1.1920928955078126e-7,
                -1.0,
                0.0,
                0.0,
                -0.008867025375366211,
                0.0,
                -0.023176398128271104,
                1.0
            ]
        },
        {
            "name": "Empty.002",
            "matrix": [
                -1.1920928955078126e-7,
                0.0,
                -1.0000001192092896,
                0.0,
                0.0,
                1.0,
                0.0,
                0.0,
                1.0000001192092896,
                0.0,
                -1.1920928955078126e-7,
                0.0,
                0.0,
                0.0,
                0.0,
                1.0
            ]
        },
        {
            "name": "Cube",
            "mesh": 0
        },
        {
            "name": "Empty.003",
            "matrix": [
                0.027921676635742189,
                3.5762786865234377e-7,
                0.999610185623169,
                0.0,
                -0.9925785064697266,
                0.11840313673019409,
                0.027725249528884889,
                0.0,
                -0.11835703253746033,
                -0.9929656982421875,
                0.0033063292503356935,
                0.0,
                0.0,
                0.0,
                0.0,
                1.0
            ]
        }
    ],
    "samplers": [
        {
            "magFilter": 9729,
            "minFilter": 9987
        }
    ],
    "scenes": [
        {
            "nodes": [
                0
            ]
        }
    ],
    "textures": [
        {
            "source": 0,
            "sampler": 0
        }
    ],
    "scene": 0
}